<svg xmlns="http://www.w3.org/2000/svg" xmlns:xlink="http://www.w3.org/1999/xlink" height="46.000000483182696" width="49.934241855923574">
  <g opacity="1">
    <g opacity="1">
      <g opacity="1">
        <g>
          <path fill="rgb(29,81,158)" fill-opacity="1" opacity="1" fill-rule="evenodd" d="M24.9671630859375 34.16168642678621C33.670166015625 34.16168642678621 40.735931396484375 26.50801897683504 40.735931396484375 17.08084154763582C40.735931396484375 7.6536698404825 33.670166015625 4.831826956319674e-7 24.9671630859375 4.831826956319674e-7C16.26416015625 4.831826956319674e-7 9.19842529296875 7.6536698404825 9.19842529296875 17.08084154763582C9.19842529296875 26.50801897683504 16.26416015625 34.16168642678621 24.9671630859375 34.16168642678621ZM35.88397216796875 17.080845362333086C35.88397216796875 10.347149378446368 30.9923095703125 4.880241877225664 24.9671630859375 4.880241877225664C18.941986083984375 4.880241877225664 14.050323486328125 10.347149378446368 14.050323486328125 17.080845362333086C14.050323486328125 23.81453753152254 18.941986083984375 29.281448847440508 24.9671630859375 29.281448847440508C30.9923095703125 29.281448847440508 35.88397216796875 23.81453753152254 35.88397216796875 17.080845362333086Z"/>
        </g>
        <g opacity="1">
          <path fill="rgb(29,81,158)" fill-opacity="1" opacity="1" fill-rule="evenodd" d="M4.547473508864641e-13 17.080830508018956L49.9342418559241 17.080830508018956L40.735828882464475 46.00000048318269L9.198412973460073 46.00000048318269L4.547473508864641e-13 17.080830508018956Z"/>
        </g>
      </g>
    </g>
  </g>
</svg>