<svg xmlns="http://www.w3.org/2000/svg" xmlns:xlink="http://www.w3.org/1999/xlink" height="151.99990622917102" width="165">
  <g opacity="0.5">
    <g>
      <path fill="rgb(247,233,208)" fill-opacity="1" opacity="1" fill-rule="evenodd" d="M82.50013732910156 112.88203589836044C111.25786972045898 112.88203589836044 134.60552597045898 87.59165351310654 134.60552597045898 56.44101493278428C134.60552597045898 25.290372537764746 111.25786972045898 0.0000015966026367664199 82.50012969970703 0.0000015966026367664199C53.74238586425781 0.0000015966026367664199 30.39474105834961 25.290372537764746 30.39474105834961 56.44101493278428C30.39474105834961 87.59166114250107 53.74238586425781 112.88203589836044 82.50013732910156 112.88203589836044ZM118.57308578491211 56.44101111808701C118.57308578491211 34.19055335441514 102.40934371948242 16.126002954634863 82.50013732910156 16.126002954634863C62.59092712402344 16.126002954634863 46.42716979980469 34.19055335441514 46.42716979980469 56.44101111808701C46.42716979980469 78.69146888175888 62.59092712402344 96.75602881828232 82.50013732910156 96.75602881828232C102.40934371948242 96.75602881828232 118.57308578491211 78.69146888175888 118.57308578491211 56.44101111808701Z"/>
    </g>
    <g opacity="1">
      <path fill="rgb(247,233,208)" fill-opacity="1" opacity="1" fill-rule="evenodd" d="M0 56.440969744868326L165.0000000000001 56.440969744868326L134.6052631578948 151.99990622917102L30.39473684210528 151.99990622917102L0 56.440969744868326Z"/>
    </g>
  </g>
</svg>