<svg xmlns="http://www.w3.org/2000/svg" xmlns:xlink="http://www.w3.org/1999/xlink" height="105.81233479698804" width="86.49569369515211">
  <g opacity="1">
    <g transform="translate(35.961904935204075, 52.69084491719204) rotate(-25.000008939104177) translate(-35.961904935204075, -52.69084491719204)">
      <path fill="rgb(254,201,86)" fill-opacity="1" opacity="1" fill-rule="evenodd" d="M19.8999237340322 22.425525092973288C19.8999237340322 11.1759675978561 27.0970672887197 2.0427583693404756 35.961904935204075 2.0427583693404756C44.826773099266575 2.0427583693404756 52.02388613637595 11.1759675978561 52.02388613637595 22.425525092973288C52.02388613637595 31.487292671098288 47.353933743797825 39.175815009965476 40.9040741246572 41.82359638203579L40.9040741246572 98.3967927931686C40.9040741246572 101.12442340840298 38.689566068016575 103.3389314650436 35.961904935204075 103.3389314650436C33.2342743199697 103.3389314650436 31.019766263329075 101.12442340840298 31.019766263329075 98.3967927931686L31.019766263329075 41.82361164082485C24.56990664418845 39.1758455275436 19.8999237340322 31.487292671098288 19.8999237340322 22.425525092973288Z"/>
    </g>
    <g transform="translate(51.74780886586814, 52.90618312169289) rotate(25.000008939104177) translate(-51.74780886586814, -52.90618312169289)" opacity="1">
      <g>
        <path fill="rgb(254,201,86)" fill-opacity="1" opacity="1" fill-rule="evenodd" d="M37.539114407860325 32.57886066426235L37.539114407860325 6.092303657426413C37.539114407860325 4.583224677934226 38.7624725621572 3.3598665236373506 40.27156680043845 3.3598665236373506C41.780630521141575 3.3598665236373506 43.00398867543845 4.583224677934226 43.00398867543845 6.092303657426413L43.00398867543845 24.246127509965476C44.59017031606345 23.275226020707663 46.44624941762595 22.562121772660788 48.4688934605947 22.1876863478561L48.4688934605947 6.638797187699851C48.4688934605947 4.829104804887351 49.9381317418447 3.3598665236373506 51.7478241246572 3.3598665236373506C53.5575165074697 3.3598665236373506 55.0267547887197 4.829104804887351 55.0267547887197 6.638797187699851L55.0267547887197 22.187701606645163C57.049368314110325 22.56213703144985 58.905447415672825 23.275256538285788 60.491629056297825 24.2461580275436L60.491629056297825 6.092303657426413C60.491629056297825 4.584231758012351 61.715994290672825 3.3598665236373506 63.22408144887595 3.3598665236373506C64.73213808950095 3.3598665236373506 65.95650332387595 4.584231758012351 65.95650332387595 6.092303657426413L65.95650332387595 32.57886066426235C65.95650332387595 32.63060321797329 65.95506899770407 32.68201007832485 65.95223086293845 32.73305072773891C65.95506899770407 32.824252509965476 65.95647280629782 32.91575946797329 65.95647280629782 33.007541084184226C65.95647280629782 37.7560457228561 62.1436981480947 41.81325092305141 56.785025052391575 43.40539875019985L56.785025052391575 99.71390094746548C56.785025052391575 102.44156208027798 54.57051699575095 104.65603961934048 51.84285586293845 104.65603961934048C49.115225247704075 104.65603961934048 46.90071719106345 102.44156208027798 46.90071719106345 99.71390094746548L46.90071719106345 43.460666084184226C41.442312650047825 41.90880146016079 37.539114407860325 37.81203021992641 37.539114407860325 33.007541084184226C37.539114407860325 32.915683174027976 37.5405487340322 32.824069404496726 37.543386868797825 32.73274555195766C37.5405487340322 32.681857490434226 37.539114407860325 32.630526924027976 37.539114407860325 32.57886066426235Z"/>
      </g>
      <g opacity="1">
        <g opacity="1">
          <path fill="rgb(247,233,208)" fill-opacity="1" opacity="1" fill-rule="evenodd" d="M43.00399778837965 3.8887747387149463C43.00399778837965 2.379685315279001 44.22735647961334 1.1563266240453058 45.73644590304929 1.156326624045306L45.73644590304929 1.1563266240453065C47.24553532648524 1.156326624045306 48.46889401771893 2.379685315279001 48.46889401771893 3.8887747387149463L48.46889401771893 25.60092807002577C48.46889401771893 27.110017493461715 47.24553532648524 28.33337618469541 45.73644590304929 28.33337618469541L45.73644590304929 28.33337618469541C44.22735647961335 28.33337618469541 43.00399778837965 27.110017493461715 43.00399778837965 25.60092807002577L43.00399778837965 3.8887747387149463Z"/>
        </g>
        <g opacity="1">
          <path fill="rgb(247,233,208)" fill-opacity="1" opacity="1" fill-rule="evenodd" d="M55.026769492925666 3.8887747387149463C55.026769492925666 2.379685315279001 56.25012818415936 1.1563266240453058 57.7592176075953 1.156326624045306L57.7592176075953 1.1563266240453065C59.268307031031256 1.156326624045306 60.49166572226495 2.379685315279001 60.49166572226495 3.8887747387149463L60.49166572226495 25.60092807002577C60.49166572226495 27.110017493461715 59.268307031031256 28.33337618469541 57.7592176075953 28.33337618469541L57.7592176075953 28.33337618469541C56.250128184159365 28.33337618469541 55.026769492925666 27.110017493461715 55.026769492925666 25.60092807002577L55.026769492925666 3.8887747387149463Z"/>
        </g>
      </g>
    </g>
  </g>
</svg>