<svg xmlns="http://www.w3.org/2000/svg" xmlns:xlink="http://www.w3.org/1999/xlink" height="119.77356102908425" width="276.08364355400704">
  <g opacity="1">
    <g opacity="1">
      <path fill="rgb(254,201,86)" fill-opacity="1" opacity="1" fill-rule="evenodd" d="M11.020905888501858 0L266.0209258885018 0C271.54007613344174 0 276.0209258885018 4.48084975506 276.0209258885018 10L276.0209258885018 109.77356102908423C276.0209258885018 115.29271127402423 271.54007613344174 119.77356102908423 266.0209258885018 119.77356102908423L11.020905888501858 119.77356102908423C5.501755643561859 119.77356102908423 1.0209058885018596 115.29271127402424 1.0209058885018578 109.77356102908423L1.0209058885018578 10C1.0209058885018578 4.480849755060001 5.5017556435618555 1.7763568394002505e-15 11.020905888501856 0Z"/>
    </g>
    <g opacity="1">
      <path fill-opacity="0" stroke="rgb(29,81,158)" stroke-opacity="1" stroke-width="3" stroke-linecap="round" stroke-linejoin="round" opacity="1" fill-rule="evenodd" d="M1.5000000000000853 71.62928649778601L33.59930547038336 48.92710826351514L60.90766982578404 71.62928649778601L83.42509306620217 21.91934450205497L122.7108102090593 108.42247191194915L138.5209158885018 64.19236604173176L147.6237040069687 86.50312740989452L156.7264921254356 48.92710826351514L165.35018613240425 71.62928649778601L176.84844480836242 21.91934450205497L188.3467034843206 64.19236604173176L198.40767982578404 48.92710826351514L274.58364355400704 48.92710826351514"/>
    </g>
  </g>
</svg>