<svg xmlns="http://www.w3.org/2000/svg" xmlns:xlink="http://www.w3.org/1999/xlink" height="44.19262953081443" width="47.96682687674274">
  <g opacity="1">
    <g>
      <path fill="rgb(214,47,63)" fill-opacity="1" opacity="1" fill-rule="evenodd" d="M23.98346897454121 32.8194580078125C32.34357639641621 32.8194580078125 39.13092991204121 25.46649169921875 39.13092991204121 16.40972900390625C39.13092991204121 7.35296630859375 32.34357639641621 0 23.98346897454121 0C15.62336155266621 0 8.83600803704121 7.35296630859375 8.83600803704121 16.40972900390625C8.83600803704121 25.46649169921875 15.62336155266621 32.8194580078125 23.98346897454121 32.8194580078125ZM34.470132792900586 16.4097900390625C34.470132792900586 9.94061279296875 29.771219218681836 4.68853759765625 23.983438456963086 4.68853759765625C18.19568821282246 4.68853759765625 13.496744121025586 9.94061279296875 13.496744121025586 16.4097900390625C13.496744121025586 22.87890625 18.19568821282246 28.1309814453125 23.983438456963086 28.1309814453125C29.771219218681836 28.1309814453125 34.470132792900586 22.87890625 34.470132792900586 16.4097900390625Z"/>
    </g>
    <g opacity="1">
      <path fill="rgb(29,81,158)" fill-opacity="1" opacity="1" fill-rule="evenodd" d="M0 16.409730330752495L47.96682687674287 16.409730330752495L39.1308324520797 44.19262953081444L8.83599442466316 44.19262953081444L0 16.409730330752495Z"/>
    </g>
  </g>
</svg>