<svg xmlns="http://www.w3.org/2000/svg" xmlns:xlink="http://www.w3.org/1999/xlink" height="44.19260248068929" width="47.96682687674297">
  <g opacity="1">
    <g>
      <path fill="rgb(247,233,208)" fill-opacity="1" opacity="1" fill-rule="evenodd" d="M23.98345947265625 32.81943130493164C32.34356689453125 32.81943130493164 39.13092041015625 25.46648406982422 39.13092041015625 16.40971565246582C39.13092041015625 7.352946758270264 32.34356689453125 0 23.98345947265625 0C15.62335205078125 0 8.83599853515625 7.352946758270264 8.83599853515625 16.40971565246582C8.83599853515625 25.46648406982422 15.62335205078125 32.81943130493164 23.98345947265625 32.81943130493164ZM34.47015380859375 16.409717559814453C34.47015380859375 9.940595626831055 29.771240234375 4.688490390777588 23.98345947265625 4.688490390777588C18.195709228515625 4.688490390777588 13.49676513671875 9.940595626831055 13.49676513671875 16.409717559814453C13.49676513671875 22.87883758544922 18.195709228515625 28.130943298339844 23.98345947265625 28.130943298339844C29.771240234375 28.130943298339844 34.47015380859375 22.87883758544922 34.47015380859375 16.409717559814453Z"/>
    </g>
    <g opacity="1">
      <path fill="rgb(247,233,208)" fill-opacity="1" opacity="1" fill-rule="evenodd" d="M0 16.409703280627355L47.96682687674287 16.409703280627355L39.1308324520797 44.1926024806893L8.83599442466316 44.1926024806893L0 16.409703280627355Z"/>
    </g>
  </g>
</svg>