<svg xmlns="http://www.w3.org/2000/svg" xmlns:xlink="http://www.w3.org/1999/xlink" height="106.53782129463434" width="86.9566187518999">
  <g opacity="1">
    <g transform="translate(35.96190180381518, 53.84699331161846) rotate(-25.000008939104177) translate(-35.96190180381518, -53.84699331161846)">
      <path fill="rgb(29,81,158)" fill-opacity="1" opacity="1" fill-rule="evenodd" d="M19.899920602643306 23.581734522555962C19.899920602643306 12.332100733493462 27.097064157330806 3.198922022555962 35.96190180381518 3.198922022555962C44.82676996787768 3.198922022555962 52.023883004987056 12.332100733493462 52.023883004987056 23.581734522555962C52.023883004987056 32.64350210068096 47.35393061240893 40.33197866318096 40.904070993268306 42.97968374130596L40.904070993268306 99.55292592880596C40.904070993268306 102.28058706161846 38.68956293662768 104.49506460068096 35.96190180381518 104.49506460068096C33.234271188580806 104.49506460068096 31.01976313194018 102.28058706161846 31.01976313194018 99.55292592880596L31.01976313194018 42.97980581161846C24.569903512799556 40.33210073349346 19.899920602643306 32.64350210068096 19.899920602643306 23.581734522555962Z"/>
    </g>
    <g transform="translate(52.208758493268306, 52.906122191446116) rotate(25.000008939104177) translate(-52.208758493268306, -52.906122191446116)" opacity="1">
      <g>
        <path fill="rgb(29,81,158)" fill-opacity="1" opacity="1" fill-rule="evenodd" d="M38.000079294049556 32.57880483505596L38.000079294049556 6.092232569430962C38.000079294049556 4.583199366305962 39.22343744834643 3.359810694430962 40.73253168662768 3.359810694430962C42.241595407330806 3.359810694430962 43.46495356162768 4.583199366305962 43.46495356162768 6.092232569430962L43.46495356162768 24.246041163180962C45.05113520225268 23.275093897555962 46.90721430381518 22.561959131930962 48.929827829205806 22.187569483493462L48.929827829205806 6.638741358493462C48.929827829205806 4.829048975680962 50.399066110455806 3.359810694430962 52.208758493268306 3.359810694430962C54.018450876080806 3.359810694430962 55.487689157330806 4.829048975680962 55.487689157330806 6.638741358493462L55.487689157330806 22.187569483493462C57.51030268272143 22.561959131930962 59.36638178428393 23.275093897555962 60.95256342490893 24.246041163180962L60.95256342490893 6.092232569430962C60.95256342490893 4.584175928805962 62.17692865928393 3.359810694430962 63.685015817487056 3.359810694430962C65.19307245811206 3.359810694430962 66.41743769248706 4.584175928805962 66.41743769248706 6.092232569430962L66.41743769248706 32.57880483505596C66.41743769248706 32.63044057724346 66.41600336631518 32.68171010849346 66.41316523154956 32.73261342880596C66.41600336631518 32.82404409286846 66.41743769248706 32.91559682724346 66.41743769248706 33.00751577255596C66.41743769248706 37.75605092880596 62.60466303428393 41.81317983505596 57.24595942100268 43.40534292099346L57.24595942100268 99.71381460068096C57.24595942100268 102.44147573349346 55.031451364362056 104.65595327255596 52.303790231549556 104.65595327255596C49.57615961631518 104.65595327255596 47.361651559674556 102.44147573349346 47.361651559674556 99.71381460068096L47.361651559674556 43.46051870224346C41.90324701865893 41.90863881943096 38.000079294049556 37.81195913193096 38.000079294049556 33.00751577255596C38.000079294049556 32.91559682724346 38.00151362022143 32.82404409286846 38.004351754987056 32.73273549911846C38.00151362022143 32.68183217880596 38.000079294049556 32.63044057724346 38.000079294049556 32.57880483505596Z"/>
      </g>
      <g opacity="1">
        <path fill="rgb(247,233,208)" fill-opacity="1" opacity="1" fill-rule="evenodd" d="M43.46494647798312 3.8887392250059096C43.46494647798312 2.3796498015699643 44.68830516921681 1.1562911103362692 46.197394592652756 1.1562911103362694L46.197394592652756 1.1562911103362699C47.70648401608871 1.1562911103362694 48.9298427073224 2.3796498015699643 48.9298427073224 3.8887392250059096L48.9298427073224 25.600892556316715C48.9298427073224 27.10998197975266 47.70648401608871 28.333340670986356 46.197394592652756 28.333340670986356L46.197394592652756 28.333340670986356C44.68830516921682 28.333340670986356 43.46494647798312 27.10998197975266 43.46494647798312 25.600892556316715L43.46494647798312 3.8887392250059096Z"/>
      </g>
      <g opacity="1">
        <path fill="rgb(247,233,208)" fill-opacity="1" opacity="1" fill-rule="evenodd" d="M55.48771818252919 3.8887392250059096C55.48771818252919 2.3796498015699643 56.711076873762885 1.1562911103362692 58.22016629719883 1.1562911103362694L58.22016629719883 1.1562911103362699C59.72925572063478 1.1562911103362694 60.952614411868474 2.3796498015699643 60.952614411868474 3.8887392250059096L60.952614411868474 25.600892556316715C60.952614411868474 27.10998197975266 59.72925572063478 28.333340670986356 58.22016629719883 28.333340670986356L58.22016629719883 28.333340670986356C56.71107687376289 28.333340670986356 55.48771818252919 27.10998197975266 55.48771818252919 25.600892556316715L55.48771818252919 3.8887392250059096Z"/>
      </g>
    </g>
  </g>
</svg>