<svg xmlns="http://www.w3.org/2000/svg" xmlns:xlink="http://www.w3.org/1999/xlink" height="105.8123033505903" width="69.4957696585675">
  <g transform="translate(34.74788482928352, 52.90615167529515) rotate(25.000008939104177) translate(-34.74788482928352, -52.90615167529515)" opacity="1">
    <g>
      <path fill="rgb(254,201,86)" fill-opacity="1" opacity="1" fill-rule="evenodd" d="M20.53919037127571 32.57882921786461L20.53919037127571 6.092272211028671C20.53919037127571 4.583193231536484 21.762548525572583 3.359835077239609 23.271642763853833 3.359835077239609C24.78070648455696 3.359835077239609 26.004064638853833 4.583193231536484 26.004064638853833 6.092272211028671L26.004064638853833 24.246096063567734C27.590246279478833 23.27519457430992 29.446325381041333 22.562090326263046 31.468969424010083 22.18765490145836L31.468969424010083 6.638765741302109C31.468969424010083 4.829073358489609 32.93820770526008 3.359835077239609 34.74790008807258 3.359835077239609C36.55759247088508 3.359835077239609 38.02683075213508 4.829073358489609 38.02683075213508 6.638765741302109L38.02683075213508 22.18767016024742C40.04944427752571 22.56210558505211 41.90552337908821 23.275225091888046 43.49170501971321 24.24612658114586L43.49170501971321 6.092272211028671C43.49170501971321 4.584200311614609 44.71607025408821 3.359835077239609 46.22415741229133 3.359835077239609C47.73221405291633 3.359835077239609 48.95657928729133 4.584200311614609 48.95657928729133 6.092272211028671L48.95657928729133 32.57882921786461C48.95657928729133 32.630571771575546 48.95514496111946 32.68197863192711 48.95230682635383 32.73301928134117C48.95514496111946 32.824221063567734 48.95654876971321 32.915728021575546 48.95654876971321 33.007509637786484C48.95654876971321 37.75601427645836 45.14377411151008 41.81321947665367 39.78510101580696 43.40536730380211L39.78510101580696 99.71386950106773C39.78510101580696 102.44153063388023 37.57059295916633 104.65600817294273 34.84293182635383 104.65600817294273C32.11530121111946 104.65600817294273 29.900793154478833 102.44153063388023 29.900793154478833 99.71386950106773L29.900793154478833 43.460634637786484C24.44238861346321 41.908770013763046 20.53919037127571 37.81199877352867 20.53919037127571 33.007509637786484C20.53919037127571 32.915651727630234 20.540624697447583 32.824037958098984 20.54346283221321 32.73271410555992C20.540624697447583 32.681826044036484 20.53919037127571 32.630495477630234 20.53919037127571 32.57882921786461Z"/>
    </g>
    <g opacity="1">
      <g opacity="1">
        <path fill="rgb(247,233,208)" fill-opacity="1" opacity="1" fill-rule="evenodd" d="M26.004073751795033 3.8887432923172045C26.004073751795033 2.379653868881259 27.22743244302873 1.156295177647564 28.736521866464674 1.1562951776475643L28.736521866464674 1.1562951776475647C30.24561128990062 1.1562951776475643 31.468969981134315 2.379653868881259 31.468969981134315 3.8887432923172045L31.468969981134315 25.600896623628028C31.468969981134315 27.109986047063973 30.24561128990062 28.33334473829767 28.736521866464674 28.33334473829767L28.736521866464674 28.33334473829767C27.22743244302873 28.33334473829767 26.004073751795033 27.109986047063973 26.004073751795033 25.600896623628028L26.004073751795033 3.8887432923172045Z"/>
      </g>
      <g opacity="1">
        <path fill="rgb(247,233,208)" fill-opacity="1" opacity="1" fill-rule="evenodd" d="M38.02684545634105 3.8887432923172045C38.02684545634105 2.379653868881259 39.25020414757474 1.156295177647564 40.75929357101069 1.1562951776475643L40.75929357101069 1.1562951776475647C42.26838299444664 1.1562951776475643 43.49174168568033 2.379653868881259 43.49174168568033 3.8887432923172045L43.49174168568033 25.600896623628028C43.49174168568033 27.109986047063973 42.26838299444664 28.33334473829767 40.75929357101069 28.33334473829767L40.75929357101069 28.33334473829767C39.25020414757475 28.33334473829767 38.02684545634105 27.109986047063973 38.02684545634105 25.600896623628028L38.02684545634105 3.8887432923172045Z"/>
      </g>
    </g>
  </g>
</svg>