<svg xmlns="http://www.w3.org/2000/svg" xmlns:xlink="http://www.w3.org/1999/xlink" height="102.29620917470879" width="68.89671897888184">
  <g opacity="1">
    <g>
      <path fill="rgb(214,47,63)" fill-opacity="1" opacity="1" fill-rule="evenodd" d="M0 21.37335205078125C0 10.12384033203125 7.197134017944336 0.9906005859375 16.061983108520508 0.9906005859375C24.92683219909668 0.9906005859375 32.12397003173828 10.12384033203125 32.12397003173828 21.37335205078125C32.12397003173828 30.43511962890625 27.453989028930664 38.12371826171875 21.004133224487305 40.771484375L21.004133224487305 97.3446044921875C21.004133224487305 100.072265625 18.78963279724121 102.2867431640625 16.061986923217773 102.2867431640625C13.334341049194336 102.2867431640625 11.119836807250977 100.072265625 11.119836807250977 97.3446044921875L11.119836807250977 40.771484375C4.669977188110352 38.12371826171875 0 30.43511962890625 0 21.37335205078125Z"/>
    </g>
    <g opacity="1">
      <g>
        <path fill="rgb(214,47,63)" fill-opacity="1" opacity="1" fill-rule="evenodd" d="M40.47933769226074 30.218994140625L40.47933769226074 3.732421875C40.47933769226074 2.22332763671875 41.70269584655762 1 43.211774826049805 1C44.72086143493652 1 45.9442195892334 2.22332763671875 45.9442195892334 3.732421875L45.9442195892334 21.88623046875C47.53039360046387 20.91534423828125 49.386465072631836 20.2022705078125 51.40909385681152 19.82781982421875L51.40909385681152 4.2789306640625C51.40909385681152 2.46923828125 52.87833213806152 1 54.68802452087402 1C56.49770927429199 1 57.96694755554199 2.46923828125 57.96694755554199 4.2789306640625L57.96694755554199 19.82781982421875C59.98958396911621 20.2022705078125 61.84566307067871 20.91534423828125 63.43183708190918 21.88623046875L63.43183708190918 3.732421875C63.43183708190918 2.224365234375 64.65620231628418 1 66.16427421569824 1C67.67235374450684 1 68.89671897888184 2.224365234375 68.89671897888184 3.732421875L68.89671897888184 30.218994140625C68.89671897888184 30.270751953125 68.89527702331543 30.3221435546875 68.89243125915527 30.3731689453125C68.89526176452637 30.46435546875 68.89668846130371 30.55584716796875 68.89668846130371 30.64764404296875C68.89668846130371 35.3961181640625 65.08391380310059 39.45330810546875 59.7252254486084 41.04547119140625L59.7252254486084 97.35406494140625C59.7252254486084 100.0816650390625 57.51071739196777 102.29620361328125 54.783071517944336 102.29620361328125C52.0554256439209 102.29620361328125 49.840925216674805 100.0816650390625 49.840925216674805 97.35406494140625L49.840925216674805 41.10076904296875C44.38252067565918 39.54888916015625 40.47933769226074 35.45208740234375 40.47933769226074 30.64764404296875C40.47933769226074 30.5557861328125 40.480764389038086 30.46417236328125 40.48360252380371 30.37286376953125C40.48077201843262 30.32196044921875 40.47933769226074 30.2706298828125 40.47933769226074 30.218994140625Z"/>
      </g>
      <g opacity="1">
        <path fill="rgb(247,233,208)" fill-opacity="1" opacity="1" fill-rule="evenodd" d="M45.944216470444815 2.73244811466964C45.944216470444815 1.223358691233695 47.167575161678506 -1.8481015320379553e-16 48.67666458511445 0L48.67666458511445 3.3462838374663947e-16C50.185754008550404 -4.567810767382878e-19 51.409112699784096 1.223358691233695 51.409112699784096 2.73244811466964L51.409112699784096 24.444601445980453C51.409112699784096 25.9536908694164 50.185754008550404 27.177049560650094 48.67666458511445 27.177049560650094L48.67666458511445 27.177049560650094C47.16757516167851 27.177049560650094 45.944216470444815 25.9536908694164 45.944216470444815 24.444601445980453L45.944216470444815 2.73244811466964Z"/>
      </g>
      <g opacity="1">
        <path fill="rgb(247,233,208)" fill-opacity="1" opacity="1" fill-rule="evenodd" d="M57.96698817499089 2.73244811466964C57.96698817499089 1.223358691233695 59.19034686622458 -1.8481015320379553e-16 60.699436289660525 0L60.699436289660525 3.3462838374663947e-16C62.20852571309648 -4.567810767382878e-19 63.43188440433017 1.223358691233695 63.43188440433017 2.73244811466964L63.43188440433017 24.444601445980453C63.43188440433017 25.9536908694164 62.20852571309648 27.177049560650094 60.699436289660525 27.177049560650094L60.699436289660525 27.177049560650094C59.19034686622459 27.177049560650094 57.96698817499089 25.9536908694164 57.96698817499089 24.444601445980453L57.96698817499089 2.73244811466964Z"/>
      </g>
    </g>
  </g>
</svg>