<svg xmlns="http://www.w3.org/2000/svg" xmlns:xlink="http://www.w3.org/1999/xlink" height="329" width="250">
  <defs>
    <path id="path-3" opacity="1" fill-rule="evenodd" d="M76.98582042553195 17L174.01419957446834 17C175.66994464795033 17 177.01419957446834 18.344254926518 177.01419957446834 20L177.01419957446834 33.76969866666666C177.01419957446834 35.425443740148665 175.66994464795033 36.76969866666666 174.01419957446834 36.76969866666666L76.98582042553195 36.76969866666666C75.33007535204996 36.76969866666666 73.98582042553195 35.425443740148665 73.98582042553195 33.76969866666666L73.98582042553195 20C73.98582042553195 18.344254926518 75.33007535204996 17 76.98582042553195 17Z"/>
    <mask id="mask-4" maskUnits="userSpaceOnUse" maskContentUnits="userSpaceOnUse" x="0" y="0">
      <rect opacity="1" x="0" y="0" width="250" height="329" fill="black"/>
      <use xlink:href="#path-3" fill="white"/>
    </mask>
    <ellipse id="ellipse-6" opacity="1" rx="4.499999999999975" ry="4.500000000000007" cx="76.49999999999997" cy="99.5"/>
    <mask id="mask-7" maskUnits="userSpaceOnUse" maskContentUnits="userSpaceOnUse" x="0" y="0">
      <rect opacity="1" x="0" y="0" width="250" height="329" fill="black"/>
      <use xlink:href="#ellipse-6" fill="white"/>
    </mask>
    <ellipse id="ellipse-11" opacity="1" rx="4.499999999999975" ry="4.500000000000007" cx="76.49999999999997" cy="147.5"/>
    <mask id="mask-12" maskUnits="userSpaceOnUse" maskContentUnits="userSpaceOnUse" x="0" y="0">
      <rect opacity="1" x="0" y="0" width="250" height="329" fill="black"/>
      <use xlink:href="#ellipse-11" fill="white"/>
    </mask>
    <ellipse id="ellipse-13" opacity="1" rx="4.499999999999975" ry="4.500000000000007" cx="76.49999999999997" cy="195.5"/>
    <mask id="mask-14" maskUnits="userSpaceOnUse" maskContentUnits="userSpaceOnUse" x="0" y="0">
      <rect opacity="1" x="0" y="0" width="250" height="329" fill="black"/>
      <use xlink:href="#ellipse-13" fill="white"/>
    </mask>
  </defs>
  <g opacity="1">
    <g opacity="1">
      <g opacity="1">
        <path fill="rgb(29,81,158)" fill-opacity="1" opacity="1" fill-rule="evenodd" d="M33 0L218.0000200000004 0C221.8634251714584 0 225.0000200000004 3.136594828542 225.0000200000004 7L225.0000200000004 236.00000000000003C225.0000200000004 239.86340517145803 221.8634251714584 243.00000000000003 218.0000200000004 243.00000000000003L33 243.00000000000003C29.136594828542002 243.00000000000003 26 239.86340517145803 26 236.00000000000003L26 7C26 3.136594828542001 29.136594828542 8.881784197001252e-16 33 0Z"/>
      </g>
      <g opacity="1">
        <path fill="rgb(247,233,208)" fill-opacity="1" opacity="1" fill-rule="evenodd" d="M54.000000000000114 32L197.0000000000003 32C198.6557450734823 32 200.0000000000003 33.344254926518 200.0000000000003 35L200.0000000000003 219C200.0000000000003 220.655745073482 198.6557450734823 222 197.0000000000003 222L54.000000000000114 222C52.34425492651811 222 51.000000000000114 220.655745073482 51.000000000000114 219L51.000000000000114 35C51.000000000000114 33.344254926518 52.34425492651811 32 54.000000000000114 32Z"/>
      </g>
      <g opacity="1">
        <use xlink:href="#path-3" fill-opacity="0" stroke="rgb(254,201,86)" stroke-opacity="1" stroke-width="10" stroke-linecap="butt" stroke-linejoin="miter" mask="url(#mask-4)"/>
      </g>
      <g opacity="1">
        <path fill="rgb(214,47,63)" fill-opacity="1" opacity="1" fill-rule="evenodd" d="M88.00000000000009 27L162.44681659574493 27C164.10256166922693 27 165.44681659574493 28.344254926518 165.44681659574493 30L165.44681659574493 40.99999999999997C165.44681659574493 42.655745073481974 164.10256166922693 43.99999999999997 162.44681659574493 43.99999999999997L88.00000000000009 43.99999999999997C86.34425492651809 43.99999999999997 85.00000000000009 42.655745073481974 85.00000000000009 40.99999999999997L85.00000000000009 30C85.00000000000009 28.344254926518 86.34425492651809 27 88.00000000000009 27Z"/>
      </g>
    </g>
    <g opacity="1">
      <text font-size="0" transform="translate(0, 256)">
        <tspan font-size="30" font-family="Arial Black" font-weight="900" style="white-space: pre;text-transform: none" fill="rgb(29,81,158)" x="34.74365234375" y="32">Daily Menu</tspan>
      </text>
    </g>
    <g opacity="1">
      <g opacity="1">
        <use xlink:href="#ellipse-6" fill-opacity="0" stroke="rgb(214,47,63)" stroke-opacity="1" stroke-width="18" stroke-linecap="butt" stroke-linejoin="miter" mask="url(#mask-7)"/>
      </g>
      <g opacity="1">
        <g opacity="1">
          <path fill-opacity="0" stroke="rgb(29,81,158)" stroke-opacity="1" stroke-width="3" stroke-linecap="round" stroke-linejoin="round" opacity="1" fill-rule="evenodd" d="M102 90L179.5 90"/>
        </g>
        <g opacity="1">
          <path fill-opacity="0" stroke="rgb(29,81,158)" stroke-opacity="1" stroke-width="3" stroke-linecap="round" stroke-linejoin="round" opacity="1" fill-rule="evenodd" d="M102 99L179.5 99"/>
        </g>
        <g opacity="1">
          <path fill-opacity="0" stroke="rgb(29,81,158)" stroke-opacity="1" stroke-width="3" stroke-linecap="round" stroke-linejoin="round" opacity="1" fill-rule="evenodd" d="M102 108L179.5 108"/>
        </g>
      </g>
    </g>
    <g opacity="1">
      <g opacity="1">
        <use xlink:href="#ellipse-11" fill-opacity="0" stroke="rgb(214,47,63)" stroke-opacity="1" stroke-width="18" stroke-linecap="butt" stroke-linejoin="miter" mask="url(#mask-12)"/>
      </g>
      <g opacity="1">
        <use xlink:href="#ellipse-13" fill-opacity="0" stroke="rgb(214,47,63)" stroke-opacity="1" stroke-width="18" stroke-linecap="butt" stroke-linejoin="miter" mask="url(#mask-14)"/>
      </g>
      <g opacity="1">
        <g opacity="1">
          <path fill-opacity="0" stroke="rgb(29,81,158)" stroke-opacity="1" stroke-width="3" stroke-linecap="round" stroke-linejoin="round" opacity="1" fill-rule="evenodd" d="M102 138L179.5 138"/>
        </g>
        <g opacity="1">
          <path fill-opacity="0" stroke="rgb(29,81,158)" stroke-opacity="1" stroke-width="3" stroke-linecap="round" stroke-linejoin="round" opacity="1" fill-rule="evenodd" d="M102 147L179.5 147"/>
        </g>
        <g opacity="1">
          <path fill-opacity="0" stroke="rgb(29,81,158)" stroke-opacity="1" stroke-width="3" stroke-linecap="round" stroke-linejoin="round" opacity="1" fill-rule="evenodd" d="M102 156L179.5 156"/>
        </g>
      </g>
      <g opacity="1">
        <g opacity="1">
          <path fill-opacity="0" stroke="rgb(29,81,158)" stroke-opacity="1" stroke-width="3" stroke-linecap="round" stroke-linejoin="round" opacity="1" fill-rule="evenodd" d="M102 186L179.5 186"/>
        </g>
        <g opacity="1">
          <path fill-opacity="0" stroke="rgb(29,81,158)" stroke-opacity="1" stroke-width="3" stroke-linecap="round" stroke-linejoin="round" opacity="1" fill-rule="evenodd" d="M102 195L179.5 195"/>
        </g>
        <g opacity="1">
          <path fill-opacity="0" stroke="rgb(29,81,158)" stroke-opacity="1" stroke-width="3" stroke-linecap="round" stroke-linejoin="round" opacity="1" fill-rule="evenodd" d="M102 204L179.5 204"/>
        </g>
      </g>
    </g>
    <g opacity="1">
      <text font-size="0" transform="translate(61, 50)">
        <tspan font-size="20" font-family="Arial Black" font-weight="900" style="white-space: pre;text-transform: none" fill="rgb(214,47,63)" x="1.380859375" y="18">recommend</tspan>
      </text>
    </g>
  </g>
</svg>