<svg xmlns="http://www.w3.org/2000/svg" xmlns:xlink="http://www.w3.org/1999/xlink" height="57.75141729270081" width="53.335998888680024">
  <g opacity="1">
    <g opacity="1">
      <g transform="translate(26.667999444339785, 28.875708646350404) rotate(-35.00001251474585) translate(-26.667999444339785, -28.875708646350404)">
        <path fill="rgb(214,47,63)" fill-opacity="1" opacity="1" fill-rule="evenodd" d="M26.667991814945253 4.440131253772279C35.19268053564838 4.440131253772279 42.11364000830463 11.361090726428529 42.11364000830463 19.88574892955353C42.11364000830463 27.43689639049103 36.68328112158588 33.72968203502228 29.518104729984316 35.06854922252228L29.499611077640566 53.31128603892853L23.83649462256244 53.31122500377228L23.80768602881244 47.00440127330353L23.80768602881244 35.06659609752228C16.64757555517963 33.72363955455353 11.22235888037494 27.43329531627228 11.22235888037494 19.88574892955353C11.22235888037494 11.361090726428529 18.14331835303119 4.440131253772279 26.667991814945253 4.440131253772279ZM36.39246386084369 19.88269717174103C36.39246386084369 14.515326566272279 32.034828362796816 10.157660550647279 26.667442498539003 10.157660550647279C21.30005663428119 10.157660550647279 16.942421136234316 14.515326566272279 16.942421136234316 19.88269717174103C16.942421136234316 25.25006777720978 21.30005663428119 29.60773379283478 26.667442498539003 29.60773379283478C32.034828362796816 29.60773379283478 36.39246386084369 25.25006777720978 36.39246386084369 19.88269717174103Z"/>
      </g>
    </g>
    <g opacity="1">
      <ellipse fill="rgb(247,233,208)" fill-opacity="1" opacity="1" rx="10.09827934247227" ry="10.098282308064286" cx="21.458735139118406" cy="21.459018475641955"/>
    </g>
  </g>
</svg>