<svg xmlns="http://www.w3.org/2000/svg" xmlns:xlink="http://www.w3.org/1999/xlink" height="57.75138727182957" width="53.33597755548044">
  <g opacity="1">
    <g opacity="1">
      <g transform="translate(26.66798877774022, 28.875693858962336) rotate(-35.00001251474585) translate(-26.66798877774022, -28.875693858962336)">
        <path fill="rgb(247,233,208)" fill-opacity="1" opacity="1" fill-rule="evenodd" d="M26.66798114834569 4.440135063033381C35.192669869048814 4.440135063033381 42.113629341705064 11.361093582015314 42.113629341705064 19.885772765975275C42.113629341705064 27.436850608687678 36.683270454986314 33.7296057356408 29.518109322173814 35.06849962602166L29.499615669830064 53.311251701216975L23.83649921475194 53.31124788651971L23.80769062100194 47.00442034135369L23.80769062100194 35.06659990678338C16.647564888580064 33.72365862260369 11.222348213775376 27.433280052047053 11.222348213775376 19.885772765975275C11.222348213775376 11.361093582015314 18.143307686431626 4.440135063033381 26.66798114834569 4.440135063033381ZM36.392453194244126 19.88265615830926C36.392453194244126 14.515268386702814 32.03481769619725 10.157630981307307 26.66743183193944 10.157630981307307C21.300045967681626 10.157630981307307 16.94241046963475 14.515268386702814 16.94241046963475 19.88265615830926C16.94241046963475 25.250041068892756 21.300045967681626 29.607680381636897 26.66743183193944 29.607680381636897C32.03481769619725 29.607680381636897 36.392453194244126 25.250041068892756 36.392453194244126 19.88265615830926Z"/>
      </g>
    </g>
    <g opacity="1">
      <ellipse fill="rgb(247,233,208)" fill-opacity="1" opacity="1" rx="10.09827934247227" ry="10.098282308064286" cx="21.458535610146047" cy="21.459061515142906"/>
    </g>
  </g>
</svg>