<svg xmlns="http://www.w3.org/2000/svg" xmlns:xlink="http://www.w3.org/1999/xlink" height="46.0000004831827" width="63.19858511764323">
  <defs>
    <path id="path-3" opacity="1" fill-rule="evenodd" d="M33.26434326171875 28.000000483182703L33.26434326171875 22.000000483182703L44.547332763671875 31.407654291776453L33.26434326171875 40.3201909128702L33.26434326171875 35.0000004831827L4.26434326171875 35.0000004831827L0.5 28.000000483182703L33.26434326171875 28.000000483182703Z"/>
  </defs>
  <g opacity="1">
    <g opacity="1">
      <g opacity="1">
        <g opacity="1">
          <g>
            <path fill="rgb(214,47,63)" fill-opacity="1" opacity="1" fill-rule="evenodd" d="M38.23150634765625 34.16168261208895C46.93450927734375 34.16168261208895 54.000274658203125 26.507996088651453 54.000274658203125 17.080872065213953C54.000274658203125 7.653687006620203 46.93450927734375 4.831827027373947e-7 38.23150634765625 4.831827027373947e-7C29.52850341796875 4.831827027373947e-7 22.4627685546875 7.653687006620203 22.4627685546875 17.080872065213953C22.4627685546875 26.507996088651453 29.52850341796875 34.16168261208895 38.23150634765625 34.16168261208895ZM49.1483154296875 17.080872065213953C49.1483154296875 10.347168451932703 44.25665283203125 4.880249506620203 38.23150634765625 4.880249506620203C32.206329345703125 4.880249506620203 27.314666748046875 10.347168451932703 27.314666748046875 17.080872065213953C27.314666748046875 23.814575678495203 32.206329345703125 29.281433588651453 38.23150634765625 29.281433588651453C44.25665283203125 29.281433588651453 49.1483154296875 23.814575678495203 49.1483154296875 17.080872065213953Z"/>
          </g>
          <g opacity="1">
            <path fill="rgb(214,47,63)" fill-opacity="1" opacity="1" fill-rule="evenodd" d="M13.264343261719205 17.08083050801895L63.19858511764285 17.08083050801895L54.000172144183225 46.00000048318268L22.462756235178823 46.00000048318268L13.264343261719205 17.08083050801895Z"/>
          </g>
        </g>
      </g>
    </g>
    <g>
      <use xlink:href="#path-3" fill="rgb(29,81,158)" fill-opacity="1"/>
      <use xlink:href="#path-3" fill-opacity="0" stroke="rgb(29,81,158)" stroke-opacity="1" stroke-width="1" stroke-linecap="round" stroke-linejoin="round"/>
    </g>
  </g>
</svg>