<svg xmlns="http://www.w3.org/2000/svg" xmlns:xlink="http://www.w3.org/1999/xlink" height="49.000005873795885" width="49.00000369942495">
  <defs>
    <radialGradient id="radialGradient-2" cx="0.5" cy="0.53" r="0.3001666203960726">
      <stop offset="0" stop-color="rgb(247,233,208)" stop-opacity="1"/>
      <stop offset="1" stop-color="rgb(214,47,63)" stop-opacity="1"/>
    </radialGradient>
  </defs>
  <g>
    <path fill="url(#radialGradient-2)" fill-opacity="1" opacity="1" fill-rule="evenodd" d="M29.05406558907339 12.569091796875C24.693576697471826 6.095947265625 24.49065006172964 0 24.49065006172964 0C24.49065006172964 0 24.33659732735464 6.16796875 19.930515174034326 12.63226318359375C11.643741492393701 11.3310546875 6.791065100792139 6.79107666015625 6.791065100792139 6.79107666015625C6.791065100792139 6.79107666015625 11.399356726768701 11.63543701171875 12.663318518760889 19.9093017578125C6.187763098839014 24.3360595703125 0.0000036994249512645183 24.49066162109375 0.0000036994249512645183 24.49066162109375C0.0000036994249512645183 24.49066162109375 6.112644080284326 24.64794921875 12.548313025596826 29.00103759765625C11.142566565635889 36.85162353515625 6.791065100792139 41.42608642578125 6.791065100792139 41.42608642578125C6.791065100792139 41.42608642578125 11.447238806846826 37.0035400390625 19.42688358223745 35.63800048828125C24.338519934776514 42.36212158203125 24.509372595909326 49 24.509372595909326 49C24.509372595909326 49 24.673175696495264 42.4415283203125 29.4939612189562 35.76263427734375C37.059177283409326 37.253173828125 41.452533606651514 41.42608642578125 41.452533606651514 41.42608642578125C41.452533606651514 41.42608642578125 37.27690494454214 37.03656005859375 35.785007361534326 29.47784423828125C42.45616519844839 24.67279052734375 49.00000369942495 24.50933837890625 49.00000369942495 24.50933837890625C49.00000369942495 24.50933837890625 42.33568180001089 24.3870849609375 35.650791052940576 19.4715576171875C37.006564978721826 11.46484375 41.452533606651514 6.79107666015625 41.452533606651514 6.79107666015625C41.452533606651514 6.79107666015625 36.888385657432764 11.190673828125 29.05406558907339 12.569091796875Z"/>
  </g>
</svg>