<svg xmlns="http://www.w3.org/2000/svg" xmlns:xlink="http://www.w3.org/1999/xlink" height="161.00001578377066" width="108.00000054127577">
  <g opacity="0.5">
    <g>
      <path fill="rgb(247,233,208)" fill-opacity="1" opacity="1" fill-rule="evenodd" d="M5.582141966442578e-7 33.638671875C5.582141966442578e-7 15.9334716796875 11.281965813951501 1.559051513671875 25.178183160142908 1.559051513671875C39.07440241368295 1.559051513671875 50.356369576768884 15.9334716796875 50.356369576768884 33.638671875C50.356369576768884 47.900634765625 43.035881600694665 60.0013427734375 32.92531641514779 64.1685791015625L32.92531641514779 153.238037109375C32.92531641514779 157.5137939453125 29.453939996080408 160.98516845703125 25.178183160142908 160.98516845703125C20.902422509508142 160.98516845703125 17.431047997789392 157.5137939453125 17.431047997789392 153.238037109375L17.431047997789392 64.1685791015625C7.320486626939783 60.0013427734375 5.582141966442578e-7 47.900634765625 5.582141966442578e-7 33.638671875Z"/>
    </g>
    <g opacity="1">
      <g>
        <path fill="rgb(247,233,208)" fill-opacity="1" opacity="1" fill-rule="evenodd" d="M63.45394762547494 47.5777587890625L63.45394762547494 5.857177734375C63.45394762547494 3.491607666015625 65.37163408787728 1.57391357421875 67.73721941502572 1.57391357421875C70.10281237156869 1.57391357421875 72.02049883397103 3.491607666015625 72.02049883397103 5.857177734375L72.02049883397103 34.4459228515625C74.50692614109994 32.9178466796875 77.41644152195931 31.7955322265625 80.5870424130726 31.20623779296875L80.5870424130726 6.713836669921875C80.5870424130726 3.877044677734375 82.89016588719369 1.57391357421875 85.72697313817025 1.57391357421875C88.56377275975228 1.57391357421875 90.86690386326791 3.877044677734375 90.86690386326791 6.713836669921875L90.86690386326791 31.20623779296875C94.03750475438119 31.7955322265625 96.9470277646351 32.9178466796875 99.433455071764 34.4459228515625L99.433455071764 5.857177734375C99.433455071764 3.493194580078125 101.35272844822885 1.57391357421875 103.71673449070931 1.57391357421875C106.08073290379525 1.57391357421875 107.99999865086556 3.493194580078125 107.99999865086556 5.857177734375L107.99999865086556 47.5777587890625C107.99999865086556 47.6568603515625 107.99784716160775 47.73541259765625 107.99360521824838 47.81341552734375C107.99783190281869 47.95361328125 107.99996813328744 48.09417724609375 107.99996813328744 48.23516845703125C107.99996813328744 55.70867919921875 102.02319201024056 62.09417724609375 93.62310656102181 64.5999755859375L93.62310656102181 153.25286865234375C93.62310656102181 157.52862548828125 90.15173204930306 161 85.87596758397103 161C81.60021074803353 161 78.12883623631478 157.52862548828125 78.12883623631478 153.25286865234375L78.12883623631478 64.68695068359375C69.57243975193978 62.2445068359375 63.45394762547494 55.7967529296875 63.45394762547494 48.23516845703125C63.45394762547494 48.0941162109375 63.45607622654916 47.95343017578125 63.460310540514 47.81317138671875C63.45608385594369 47.73529052734375 63.45394762547494 47.65673828125 63.45394762547494 47.5777587890625Z"/>
      </g>
      <g opacity="1">
        <path fill="rgb(254,201,86)" fill-opacity="1" opacity="1" fill-rule="evenodd" d="M72.02049496162407 4.2832865786642484C72.02049496162407 1.9176927221131006 73.93818768373711 5.655371716635721e-14 76.30378154028826 5.684341886080802e-14L76.30378154028826 5.73679701806472e-14C78.6693753968394 5.631743547406524e-14 80.58706811895244 1.9176927221131006 80.58706811895244 4.2832865786642484L80.58706811895244 38.48961227576149C80.58706811895244 40.85520613231264 78.6693753968394 42.77289885442568 76.30378154028826 42.77289885442568L76.30378154028826 42.77289885442568C73.93818768373711 42.77289885442568 72.02049496162407 40.85520613231264 72.02049496162407 38.48961227576149L72.02049496162407 4.2832865786642484Z"/>
      </g>
      <g opacity="1">
        <path fill="rgb(254,201,86)" fill-opacity="1" opacity="1" fill-rule="evenodd" d="M90.86695590774453 4.283286578664258C90.86695590774453 1.9176927221131055 92.78464862985757 5.655371716635721e-14 95.15024248640873 5.684341886080802e-14L95.15024248640873 5.73679701806472e-14C97.51583634295989 5.631743547406524e-14 99.43352906507293 1.917692722113105 99.43352906507293 4.283286578664258L99.43352906507293 38.48961227576147C99.43352906507293 40.855206132312624 97.51583634295989 42.77289885442568 95.15024248640873 42.77289885442568L95.15024248640873 42.77289885442568C92.78464862985757 42.77289885442568 90.86695590774453 40.855206132312624 90.86695590774453 38.48961227576147L90.86695590774453 4.283286578664258Z"/>
      </g>
    </g>
  </g>
</svg>